<svg width="78" height="19" viewBox="0 0 78 19" fill="none" xmlns="http://www.w3.org/2000/svg">
<path d="M9.17 17.002H0.962V15.71H9.17V17.002ZM17.297 17.002H9.08895V15.71H17.297V17.002ZM18.7549 14V0.433999H21.8329V11.625H26.8679V14H18.7549ZM37.9271 8.794C37.9271 9.65533 37.8131 10.4217 37.5851 11.093C37.3698 11.7643 37.0531 12.3343 36.6351 12.803C36.2171 13.259 35.7041 13.6073 35.0961 13.848C34.5008 14.076 33.8294 14.19 33.0821 14.19C32.3854 14.19 31.7394 14.076 31.1441 13.848C30.5488 13.6073 30.0358 13.259 29.6051 12.803C29.1871 12.3343 28.8578 11.7643 28.6171 11.093C28.3891 10.4217 28.2751 9.65533 28.2751 8.794C28.2751 7.64133 28.4714 6.67233 28.8641 5.887C29.2568 5.089 29.8141 4.481 30.5361 4.063C31.2581 3.645 32.1258 3.436 33.1391 3.436C34.0764 3.436 34.8998 3.645 35.6091 4.063C36.3311 4.481 36.8948 5.089 37.3001 5.887C37.7181 6.67233 37.9271 7.64133 37.9271 8.794ZM31.3721 8.794C31.3721 9.478 31.4291 10.0543 31.5431 10.523C31.6698 10.979 31.8598 11.3273 32.1131 11.568C32.3791 11.796 32.7148 11.91 33.1201 11.91C33.5381 11.91 33.8674 11.796 34.1081 11.568C34.3614 11.3273 34.5451 10.979 34.6591 10.523C34.7731 10.0543 34.8301 9.478 34.8301 8.794C34.8301 8.11 34.7731 7.54 34.6591 7.084C34.5451 6.628 34.3551 6.286 34.0891 6.058C33.8358 5.83 33.5064 5.716 33.1011 5.716C32.4804 5.716 32.0371 5.97567 31.7711 6.495C31.5051 7.00167 31.3721 7.768 31.3721 8.794ZM43.1491 3.436C43.7951 3.436 44.3398 3.56267 44.7831 3.816C45.2391 4.06933 45.6128 4.44933 45.9041 4.956H45.9801L46.2081 3.626H48.8111V14.019C48.8111 15.007 48.6211 15.8367 48.2411 16.508C47.8738 17.1793 47.3165 17.686 46.5691 18.028C45.8218 18.3827 44.8781 18.56 43.7381 18.56C43.0035 18.56 42.3321 18.5157 41.7241 18.427C41.1288 18.3383 40.5525 18.18 39.9951 17.952V15.691C40.4005 15.8683 40.7931 16.014 41.1731 16.128C41.5658 16.2547 41.9648 16.3433 42.3701 16.394C42.7881 16.4573 43.2378 16.489 43.7191 16.489C44.4158 16.489 44.9288 16.2927 45.2581 15.9C45.6001 15.5073 45.7711 14.9183 45.7711 14.133V13.924C45.7711 13.7087 45.7775 13.487 45.7901 13.259C45.8155 13.031 45.8408 12.8283 45.8661 12.651H45.7711C45.4925 13.1957 45.1315 13.5883 44.6881 13.829C44.2575 14.0697 43.7255 14.19 43.0921 14.19C41.9901 14.19 41.1098 13.7213 40.4511 12.784C39.8051 11.834 39.4821 10.5167 39.4821 8.832C39.4821 7.692 39.6341 6.723 39.9381 5.925C40.2421 5.11433 40.6665 4.5 41.2111 4.082C41.7685 3.65133 42.4145 3.436 43.1491 3.436ZM44.2131 5.735C43.8458 5.735 43.5418 5.85533 43.3011 6.096C43.0605 6.324 42.8768 6.67233 42.7501 7.141C42.6361 7.597 42.5791 8.17333 42.5791 8.87C42.5791 9.90867 42.7121 10.6877 42.9781 11.207C43.2568 11.7137 43.6811 11.967 44.2511 11.967C44.5551 11.967 44.8148 11.9227 45.0301 11.834C45.2581 11.7327 45.4418 11.5743 45.5811 11.359C45.7205 11.131 45.8218 10.8397 45.8851 10.485C45.9611 10.1303 45.9991 9.69967 45.9991 9.193V8.851C45.9991 8.10367 45.9421 7.502 45.8281 7.046C45.7141 6.59 45.5241 6.26067 45.2581 6.058C45.0048 5.84267 44.6565 5.735 44.2131 5.735ZM60.5267 8.794C60.5267 9.65533 60.4127 10.4217 60.1847 11.093C59.9694 11.7643 59.6527 12.3343 59.2347 12.803C58.8167 13.259 58.3037 13.6073 57.6957 13.848C57.1004 14.076 56.429 14.19 55.6817 14.19C54.985 14.19 54.339 14.076 53.7437 13.848C53.1484 13.6073 52.6354 13.259 52.2047 12.803C51.7867 12.3343 51.4574 11.7643 51.2167 11.093C50.9887 10.4217 50.8747 9.65533 50.8747 8.794C50.8747 7.64133 51.071 6.67233 51.4637 5.887C51.8564 5.089 52.4137 4.481 53.1357 4.063C53.8577 3.645 54.7254 3.436 55.7387 3.436C56.676 3.436 57.4994 3.645 58.2087 4.063C58.9307 4.481 59.4944 5.089 59.8997 5.887C60.3177 6.67233 60.5267 7.64133 60.5267 8.794ZM53.9717 8.794C53.9717 9.478 54.0287 10.0543 54.1427 10.523C54.2694 10.979 54.4594 11.3273 54.7127 11.568C54.9787 11.796 55.3144 11.91 55.7197 11.91C56.1377 11.91 56.467 11.796 56.7077 11.568C56.961 11.3273 57.1447 10.979 57.2587 10.523C57.3727 10.0543 57.4297 9.478 57.4297 8.794C57.4297 8.11 57.3727 7.54 57.2587 7.084C57.1447 6.628 56.9547 6.286 56.6887 6.058C56.4354 5.83 56.106 5.716 55.7007 5.716C55.08 5.716 54.6367 5.97567 54.3707 6.495C54.1047 7.00167 53.9717 7.768 53.9717 8.794ZM69.4727 17.002H61.2647V15.71H69.4727V17.002ZM77.5997 17.002H69.3917V15.71H77.5997V17.002Z" fill="#100F39"/>
</svg>
